<?xml version="1.0" encoding="UTF-8"?><svg id="Apple" xmlns="http://www.w3.org/2000/svg" xmlns:xlink="http://www.w3.org/1999/xlink" viewBox="0 0 100 50"><defs><style>.cls-1{fill:#010101;}.cls-2{font-family:Inter-Medium, Inter;font-size:12px;}.cls-3{fill:#fff;filter:url(#drop-shadow-1);}</style><filter id="drop-shadow-1" filterUnits="userSpaceOnUse"><feOffset dx="0" dy="0"/><feGaussianBlur result="blur" stdDeviation="2"/><feFlood flood-color="#000" flood-opacity=".3"/><feComposite in2="blur" operator="in"/><feComposite in="SourceGraphic"/></filter></defs><g id="Background_copy"><rect class="cls-3" x="7.5" y="3.69" width="85" height="41.8" rx="3.53" ry="3.53"/></g><g><text class="cls-2" transform="translate(42.12 29.31)"><tspan x="0" y="0">macOS</tspan></text><path class="cls-1" d="M35.41,19.48c-.15,.11-2.71,1.56-2.71,4.78,0,3.72,3.27,5.04,3.36,5.07-.02,.08-.52,1.8-1.72,3.56-1.07,1.54-2.19,3.09-3.9,3.09s-2.14-.99-4.11-.99-2.6,1.02-4.16,1.02-2.65-1.43-3.9-3.18c-1.45-2.06-2.62-5.26-2.62-8.3,0-4.87,3.17-7.46,6.29-7.46,1.66,0,3.04,1.09,4.08,1.09s2.53-1.15,4.42-1.15c.71,0,3.28,.07,4.97,2.49Zm-5.87-4.55c.78-.92,1.33-2.21,1.33-3.49,0-.18-.02-.36-.05-.5-1.27,.05-2.78,.84-3.69,1.9-.71,.81-1.38,2.1-1.38,3.4,0,.2,.03,.39,.05,.45,.08,.02,.21,.03,.34,.03,1.14,0,2.57-.76,3.4-1.79Z"/></g></svg>